<svg xmlns="http://www.w3.org/2000/svg">
    <symbol id="credits" viewBox="0 0 52 12">
        <path fill-rule="evenodd" clip-rule="evenodd"
            d="M26.9943 10.8553C26.4609 10.0767 26.1943 8.96732 26.1943 7.52731C26.1943 6.08733 26.4609 4.98332 26.9943 4.21532C27.5383 3.43666 28.3116 3.04732 29.3143 3.04732C29.9223 3.04732 30.4396 3.17532 30.8663 3.43132C31.2929 3.67667 31.5703 3.94331 31.6983 4.23132V0.759323C31.6983 0.257996 31.9489 0.00732422 32.4503 0.00732422H33.0103C33.5116 0.00732422 33.7623 0.257996 33.7623 0.759323V11.0953C33.7623 11.5967 33.5116 11.8473 33.0103 11.8473H32.4503C31.9489 11.8473 31.6983 11.5967 31.6983 11.0953V10.8233C31.5703 11.1113 31.2929 11.3833 30.8663 11.6393C30.4396 11.8847 29.9223 12.0073 29.3143 12.0073C28.3116 12.0073 27.5383 11.6233 26.9943 10.8553ZM1.72726 10.5353C0.873932 9.55397 0.447266 8.12463 0.447266 6.2473C0.447266 4.36996 0.873932 2.94064 1.72726 1.9593C2.5806 0.977966 3.80194 0.487305 5.39127 0.487305C6.95926 0.487305 8.16461 0.972641 9.00726 1.9433C9.33792 2.3273 9.27927 2.68465 8.83127 3.0153L8.38327 3.3513C8.21259 3.46864 8.05261 3.5273 7.90326 3.5273C7.71127 3.5273 7.50327 3.42596 7.27927 3.2233C6.76727 2.7433 6.13794 2.5033 5.39127 2.5033C4.46326 2.5033 3.78061 2.81798 3.34326 3.4473C2.9166 4.07664 2.70328 5.00996 2.70328 6.2473C2.70328 7.48463 2.9166 8.41797 3.34326 9.0473C3.78061 9.67664 4.46326 9.9913 5.39127 9.9913C6.13794 9.9913 6.76727 9.7513 7.27927 9.2713C7.48193 9.06863 7.68994 8.9673 7.90326 8.9673C8.05261 8.9673 8.21259 9.02597 8.38327 9.1433L8.83127 9.47929C9.27927 9.80997 9.33792 10.1673 9.00726 10.5513C8.16461 11.522 6.95926 12.0073 5.39127 12.0073C3.80194 12.0073 2.5806 11.5167 1.72726 10.5353ZM10.8438 11.0952V3.95927C10.8438 3.45793 11.0945 3.20728 11.5958 3.20728H12.1558C12.657 3.20728 12.9077 3.45793 12.9077 3.95927V4.16727C12.9185 4.08194 12.9825 3.97527 13.0998 3.84727C13.217 3.7086 13.441 3.56461 13.7718 3.41527C14.113 3.25526 14.5131 3.14861 14.9717 3.09528C15.2065 3.07394 15.3878 3.12727 15.5157 3.25526C15.6544 3.3726 15.7238 3.55394 15.7238 3.79927V4.16727C15.7238 4.62593 15.4731 4.88727 14.9717 4.95126C14.2997 5.03661 13.7878 5.2606 13.4358 5.62328C13.0837 5.98593 12.9077 6.54594 12.9077 7.30327V11.0952C12.9077 11.5966 12.657 11.8472 12.1558 11.8472H11.5958C11.0945 11.8472 10.8438 11.5966 10.8438 11.0952ZM18.0035 10.8553C18.6861 11.6233 19.6355 12.0073 20.8515 12.0073C22.3981 12.0073 23.4915 11.4527 24.1315 10.3433C24.3021 10.0553 24.3235 9.8047 24.1955 9.59137C24.0781 9.36737 23.8381 9.2287 23.4755 9.17537C23.0808 9.11136 22.6968 9.26604 22.3235 9.63936C21.9928 9.97003 21.5395 10.1353 20.9635 10.1353C20.3661 10.1353 19.8968 9.97536 19.5555 9.65536C19.2248 9.32471 19.0595 8.85004 19.0595 8.23137H23.8915C24.4035 8.23137 24.6595 7.9807 24.6595 7.47937C24.6488 6.0287 24.3021 4.93004 23.6195 4.18336C22.9475 3.42604 22.0141 3.04736 20.8195 3.04736C19.6141 3.04736 18.6701 3.43137 17.9875 4.19936C17.3155 4.95671 16.9795 6.0607 16.9795 7.51137C16.9795 8.9727 17.3208 10.0873 18.0035 10.8553ZM36.5899 3.20732C36.0886 3.20732 35.8379 3.45799 35.8379 3.95932V11.0953C35.8379 11.5967 36.0886 11.8473 36.5899 11.8473H37.1499C37.6512 11.8473 37.9019 11.5967 37.9019 11.0953V3.95932C37.9019 3.45799 37.6512 3.20732 37.1499 3.20732H36.5899ZM35.8379 0.759323V1.31932C35.8379 1.82066 36.0886 2.07132 36.5899 2.07132H37.1499C37.6512 2.07132 37.9019 1.82066 37.9019 1.31932V0.759323C37.9019 0.257996 37.6512 0.00732422 37.1499 0.00732422H36.5899C36.0886 0.00732422 35.8379 0.257996 35.8379 0.759323ZM39.1689 4.32733V3.95934C39.1689 3.45801 39.4196 3.20734 39.921 3.20734H40.1609V2.23134C40.1609 1.71933 40.3956 1.37268 40.8649 1.19133L41.5209 0.935333C41.6169 0.89267 41.7236 0.871338 41.8409 0.871338C42.097 0.871338 42.2249 1.04733 42.2249 1.39934V3.20734H43.1049C43.6062 3.20734 43.8569 3.45801 43.8569 3.95934V4.32733C43.8569 4.82867 43.6062 5.07933 43.1049 5.07933H42.2249V9.12733C42.2249 9.41533 42.257 9.62868 42.321 9.76733C42.3957 9.90601 42.545 9.97534 42.769 9.97534H43.1049C43.6062 9.97534 43.8569 10.226 43.8569 10.7273V11.0953C43.8569 11.5967 43.6062 11.8473 43.1049 11.8473H42.881C41.9102 11.8473 41.2116 11.6127 40.7849 11.1433C40.369 10.674 40.1609 10.0713 40.1609 9.33533V5.07933H39.921C39.4196 5.07933 39.1689 4.82867 39.1689 4.32733ZM45.2242 10.5193C45.2029 10.7113 45.2776 10.882 45.4482 11.0313C46.1736 11.682 47.1602 12.0073 48.4083 12.0073C49.3043 12.0073 50.0722 11.7887 50.7122 11.3513C51.3629 10.914 51.6883 10.2527 51.6883 9.36737C51.6883 8.93004 51.6029 8.54604 51.4323 8.21536C51.2722 7.8847 51.0215 7.6127 50.6802 7.39937C50.339 7.17537 50.051 7.01004 49.8163 6.90337C49.5817 6.79671 49.2456 6.67403 48.8083 6.53537C48.3177 6.37537 47.9602 6.23137 47.7362 6.10336C47.5229 5.97536 47.4163 5.79936 47.4163 5.57536C47.4163 5.13803 47.8163 4.91936 48.6162 4.91936C49.0642 4.91936 49.4749 5.01004 49.8482 5.19136C50.0829 5.29803 50.275 5.35136 50.4243 5.35136C50.5949 5.35136 50.7656 5.29271 50.9362 5.17537L51.1923 4.99936C51.4056 4.8607 51.5229 4.69536 51.5443 4.50336C51.5656 4.31137 51.4855 4.1407 51.3043 3.99136C50.5789 3.36203 49.6509 3.04736 48.5203 3.04736C47.6349 3.04736 46.8829 3.26604 46.2643 3.70337C45.6562 4.13004 45.3523 4.7807 45.3523 5.65536C45.3523 6.10336 45.4323 6.49803 45.5923 6.83937C45.7629 7.17003 46.019 7.44736 46.3603 7.67136C46.7015 7.8847 46.9895 8.04471 47.2242 8.15137C47.4695 8.25804 47.8056 8.38071 48.2322 8.51936C48.723 8.67937 49.075 8.82336 49.2882 8.95137C49.5122 9.07936 49.6242 9.25536 49.6242 9.47937C49.6242 9.9167 49.2242 10.1353 48.4243 10.1353C47.9123 10.1353 47.4163 10.0287 46.9362 9.81537C46.7122 9.71936 46.515 9.67136 46.3442 9.67136C46.1523 9.67136 45.9815 9.7247 45.8322 9.83136L45.5763 10.0073C45.3629 10.146 45.2455 10.3167 45.2242 10.5193Z"
            fill="currentColor" />
    </symbol>
    <symbol id="illustration" viewBox="0 0 78 13">
        <path fill-rule="evenodd" clip-rule="evenodd"
            d="M5.80865 0.950806C5.30731 0.950806 5.05664 1.20148 5.05664 1.70282V12.0388C5.05664 12.5401 5.30731 12.7908 5.80865 12.7908H6.36865C6.86996 12.7908 7.12064 12.5401 7.12064 12.0388V1.70282C7.12064 1.20148 6.86996 0.950806 6.36865 0.950806H5.80865ZM1.2149 1.59082C0.713562 1.59082 0.462891 1.84149 0.462891 2.3428V12.0388C0.462891 12.5401 0.713562 12.7908 1.2149 12.7908H1.96689C2.46823 12.7908 2.7189 12.5401 2.7189 12.0388V2.3428C2.7189 1.84149 2.46823 1.59082 1.96689 1.59082H1.2149ZM9.46289 1.70282C9.46289 1.20148 9.71356 0.950806 10.2149 0.950806H10.7749C11.2762 0.950806 11.5269 1.20148 11.5269 1.70282V12.0388C11.5269 12.5401 11.2762 12.7908 10.7749 12.7908H10.2149C9.71356 12.7908 9.46289 12.5401 9.46289 12.0388V1.70282ZM14.6054 12.1029C15.1601 12.6682 15.8534 12.9509 16.6854 12.9509C17.6561 12.9509 18.3868 12.5776 18.8774 11.8309V12.0389C18.8774 12.5402 19.1281 12.7909 19.6294 12.7909H20.1895C20.6908 12.7909 20.9414 12.5402 20.9414 12.0389V4.90289C20.9414 4.40155 20.6908 4.15088 20.1895 4.15088H19.6294C19.1281 4.15088 18.8774 4.40155 18.8774 4.90289V9.75089C18.8774 10.1989 18.7334 10.5349 18.4454 10.7589C18.1574 10.9722 17.7948 11.0789 17.3574 11.0789C16.9201 11.0789 16.5574 10.9722 16.2694 10.7589C15.9814 10.5349 15.8374 10.1989 15.8374 9.75089V4.90289C15.8374 4.40155 15.5869 4.15088 15.0854 4.15088H14.5255C14.0241 4.15088 13.7734 4.40155 13.7734 4.90289V9.79889C13.7734 10.7696 14.0508 11.5376 14.6054 12.1029ZM22.9268 11.9748C22.7561 11.8255 22.6814 11.6548 22.7028 11.4628C22.7241 11.2601 22.8414 11.0895 23.0548 10.9508L23.3108 10.7748C23.4601 10.6681 23.6308 10.6148 23.8228 10.6148C23.9934 10.6148 24.1908 10.6628 24.4148 10.7588C24.8948 10.9721 25.3908 11.0788 25.9028 11.0788C26.7028 11.0788 27.1028 10.8601 27.1028 10.4228C27.1028 10.1988 26.9908 10.0228 26.7668 9.89484C26.5534 9.76685 26.2014 9.62283 25.7108 9.46283C25.2841 9.32419 24.9481 9.20151 24.7028 9.09485C24.4681 8.98816 24.1801 8.82819 23.8388 8.61484C23.4974 8.39084 23.2414 8.11349 23.0708 7.78284C22.9108 7.4415 22.8308 7.04684 22.8308 6.59885C22.8308 5.72418 23.1348 5.07352 23.7428 4.64685C24.3614 4.2095 25.1134 3.99084 25.9988 3.99084C27.1294 3.99084 28.0574 4.30551 28.7828 4.93484C28.9641 5.08417 29.0441 5.25485 29.0228 5.44684C29.0014 5.63885 28.8841 5.80417 28.6708 5.94284L28.4148 6.11884C28.2441 6.23618 28.0734 6.29483 27.9028 6.29483C27.7534 6.29483 27.5614 6.24152 27.3268 6.13486C26.9534 5.95349 26.5428 5.86285 26.0948 5.86285C25.2948 5.86285 24.8948 6.08151 24.8948 6.51886C24.8948 6.74286 25.0014 6.91885 25.2148 7.04684C25.4388 7.17484 25.7961 7.31885 26.2868 7.47885C26.7241 7.61749 27.0601 7.74017 27.2948 7.84683C27.5294 7.95349 27.8174 8.11884 28.1588 8.34283C28.5001 8.55618 28.7508 8.82819 28.9108 9.15884C29.0814 9.4895 29.1668 9.8735 29.1668 10.3108C29.1668 11.1961 28.8414 11.8575 28.1908 12.2948C27.5508 12.7321 26.7828 12.9508 25.8868 12.9508C24.6388 12.9508 23.6521 12.6255 22.9268 11.9748ZM29.8975 4.90283V5.27081C29.8975 5.77216 30.1481 6.02283 30.6495 6.02283H30.8895V10.2788C30.8895 11.0148 31.0975 11.6175 31.5135 12.0868C31.9401 12.5561 32.6388 12.7908 33.6095 12.7908H33.8335C34.3347 12.7908 34.5854 12.5401 34.5854 12.0388V11.6708C34.5854 11.1695 34.3347 10.9188 33.8335 10.9188H33.4975C33.2735 10.9188 33.1241 10.8495 33.0495 10.7108C32.9855 10.5721 32.9535 10.3588 32.9535 10.0708V6.02283H33.8335C34.3347 6.02283 34.5854 5.77216 34.5854 5.27081V4.90283C34.5854 4.40149 34.3347 4.15082 33.8335 4.15082H32.9535V2.3428C32.9535 1.99081 32.8255 1.81482 32.5695 1.81482C32.4521 1.81482 32.3455 1.83615 32.2495 1.87881L31.5934 2.13483C31.1241 2.31616 30.8895 2.66281 30.8895 3.1748V4.15082H30.6495C30.1481 4.15082 29.8975 4.40149 29.8975 4.90283ZM36.4014 12.0388V4.90274C36.4014 4.40143 36.652 4.15076 37.1534 4.15076H37.7134C38.2147 4.15076 38.4654 4.40143 38.4654 4.90274V5.11075C38.476 5.02542 38.54 4.91876 38.6573 4.79074C38.7747 4.65207 38.9987 4.50809 39.3294 4.35876C39.6707 4.19876 40.0707 4.09207 40.5294 4.03876C40.764 4.01743 40.9454 4.07074 41.0734 4.19876C41.212 4.31607 41.2814 4.49741 41.2814 4.74277V5.11075C41.2814 5.56943 41.0307 5.83075 40.5294 5.89474C39.8574 5.98007 39.3454 6.20407 38.9934 6.56674C38.6414 6.92941 38.4654 7.48941 38.4654 8.24677V12.0388C38.4654 12.54 38.2147 12.7907 37.7134 12.7907H37.1534C36.652 12.7907 36.4014 12.54 36.4014 12.0388ZM42.3926 9.97485C42.3926 10.9348 42.6486 11.6708 43.1606 12.1828C43.6832 12.6948 44.3766 12.9508 45.2406 12.9508C46.0406 12.9508 46.6539 12.6895 47.0806 12.1668L47.1766 12.4548C47.2726 12.6788 47.4592 12.7908 47.7366 12.7908H48.5846C49.0326 12.7908 49.2352 12.5455 49.1926 12.0548C49.1606 11.7028 49.1446 11.3508 49.1446 10.9988V6.93484C49.1446 6.58286 49.0859 6.24686 48.9686 5.92685C48.8512 5.60684 48.6592 5.29752 48.3926 4.99884C48.1259 4.68951 47.7366 4.44418 47.2246 4.26285C46.7126 4.08151 46.0992 3.99084 45.3846 3.99084C44.5952 3.99084 43.9072 4.11884 43.3206 4.37485C42.8726 4.57751 42.7606 4.9295 42.9846 5.43085L43.0806 5.63885C43.2726 6.04419 43.6086 6.17749 44.0886 6.03885C44.4726 5.92151 44.8459 5.86285 45.2086 5.86285C45.7419 5.86285 46.1846 5.96951 46.5366 6.18283C46.8992 6.39618 47.0806 6.67883 47.0806 7.03085V7.68686C46.6859 7.22818 46.0619 6.99884 45.2086 6.99884C44.3552 6.99884 43.6726 7.25485 43.1606 7.76685C42.6486 8.27884 42.3926 9.01483 42.3926 9.97485ZM44.4566 9.97485C44.4566 9.23883 44.8992 8.87085 45.7846 8.87085C46.6486 8.87085 47.0806 9.23883 47.0806 9.97485C47.0806 10.7108 46.6486 11.0788 45.7846 11.0788C44.8992 11.0788 44.4566 10.7108 44.4566 9.97485ZM50.5381 5.27081V4.90283C50.5381 4.40149 50.7888 4.15082 51.2901 4.15082H51.5301V3.1748C51.5301 2.66281 51.7648 2.31616 52.2341 2.13483L52.8901 1.87881C52.9861 1.83615 53.0928 1.81482 53.2101 1.81482C53.4661 1.81482 53.5941 1.99081 53.5941 2.3428V4.15082H54.4741C54.9754 4.15082 55.2261 4.40149 55.2261 4.90283V5.27081C55.2261 5.77216 54.9754 6.02283 54.4741 6.02283H53.5941V10.0708C53.5941 10.3588 53.6261 10.5721 53.6901 10.7108C53.7648 10.8495 53.9141 10.9188 54.1381 10.9188H54.4741C54.9754 10.9188 55.2261 11.1695 55.2261 11.6708V12.0388C55.2261 12.5401 54.9754 12.7908 54.4741 12.7908H54.2501C53.2794 12.7908 52.5808 12.5561 52.1541 12.0868C51.7381 11.6175 51.5301 11.0148 51.5301 10.2788V6.02283H51.2901C50.7888 6.02283 50.5381 5.77216 50.5381 5.27081ZM57.5372 4.15082C57.0359 4.15082 56.7852 4.40146 56.7852 4.9028V12.0388C56.7852 12.5401 57.0359 12.7908 57.5372 12.7908H58.0972C58.5984 12.7908 58.8492 12.5401 58.8492 12.0388V4.9028C58.8492 4.40146 58.5984 4.15082 58.0972 4.15082H57.5372ZM56.7852 1.70282V2.26279C56.7852 2.76413 57.0359 3.0148 57.5372 3.0148H58.0972C58.5984 3.0148 58.8492 2.76413 58.8492 2.26279V1.70282C58.8492 1.20148 58.5984 0.950806 58.0972 0.950806H57.5372C57.0359 0.950806 56.7852 1.20148 56.7852 1.70282ZM67.364 11.7988C66.6814 12.5668 65.7427 12.9508 64.548 12.9508C63.3534 12.9508 62.4147 12.5668 61.732 11.7988C61.0494 11.0308 60.708 9.92151 60.708 8.47086C60.708 7.02017 61.0494 5.91086 61.732 5.14285C62.4147 4.37485 63.3534 3.99084 64.548 3.99084C65.7427 3.99084 66.6814 4.37485 67.364 5.14285C68.0467 5.91086 68.388 7.02017 68.388 8.47086C68.388 9.92151 68.0467 11.0308 67.364 11.7988ZM71.1837 4.15085C70.6823 4.15085 70.4316 4.40152 70.4316 4.90283V12.0388C70.4316 12.5401 70.6823 12.7908 71.1837 12.7908H71.7437C72.2449 12.7908 72.4956 12.5401 72.4956 12.0388V7.19086C72.4956 6.74286 72.6396 6.41217 72.9276 6.19885C73.2156 5.97485 73.5782 5.86285 74.0157 5.86285C74.4529 5.86285 74.8156 5.97485 75.1036 6.19885C75.3916 6.41217 75.5356 6.74286 75.5356 7.19086V12.0388C75.5356 12.5401 75.7863 12.7908 76.2877 12.7908H76.8477C77.3489 12.7908 77.5996 12.5401 77.5996 12.0388V7.14285C77.5996 6.17218 77.3222 5.40417 76.7676 4.83884C76.213 4.2735 75.5197 3.99084 74.6877 3.99084C73.7169 3.99084 72.9862 4.36417 72.4956 5.11084V4.90283C72.4956 4.40152 72.2449 4.15085 71.7437 4.15085H71.1837Z"
            fill="currentColor" />
    </symbol>
    <symbol id="development" viewBox="0 0 99 16">
        <path fill-rule="evenodd" clip-rule="evenodd"
            d="M38.9454 0.829712C38.4441 0.829712 38.1934 1.08038 38.1934 1.5817V11.9177C38.1934 12.419 38.4441 12.6697 38.9454 12.6697H39.5054C40.0068 12.6697 40.2574 12.419 40.2574 11.9177V1.5817C40.2574 1.08038 40.0068 0.829712 39.5054 0.829712H38.9454ZM0.294922 11.9177V2.22174C0.294922 1.7204 0.545593 1.46973 1.04694 1.46973H4.19891C5.74561 1.46973 6.9296 1.93906 7.75092 2.87772C8.57227 3.81641 8.98291 5.21371 8.98291 7.06973C8.98291 8.92572 8.57227 10.323 7.75092 11.2617C6.9296 12.2004 5.74561 12.6697 4.19891 12.6697H1.04694C0.545593 12.6697 0.294922 12.419 0.294922 11.9177ZM4.07092 3.48572H2.55093V10.6537H4.07092C5.05225 10.6537 5.74026 10.371 6.13492 9.80573C6.5296 9.24039 6.72693 8.3284 6.72693 7.06973C6.72693 5.81107 6.5296 4.89905 6.13492 4.33374C5.74026 3.7684 5.05225 3.48572 4.07092 3.48572ZM14.6699 12.8297C13.4539 12.8297 12.5045 12.4457 11.8218 11.6777C11.1392 10.9097 10.7979 9.7951 10.7979 8.33374C10.7979 6.88309 11.1339 5.77908 11.8058 5.02176C12.4885 4.25375 13.4325 3.86975 14.6378 3.86975C15.8325 3.86975 16.7658 4.24841 17.4379 5.00574C18.1205 5.75241 18.4672 6.8511 18.4778 8.30176C18.4778 8.8031 18.2219 9.05374 17.7098 9.05374H12.8778C12.8778 9.67242 13.0432 10.147 13.3738 10.4778C13.7151 10.7977 14.1844 10.9577 14.7819 10.9577C15.3578 10.9577 15.8112 10.7924 16.1418 10.4617C16.5152 10.0884 16.8991 9.93375 17.2939 9.99774C17.6565 10.0511 17.8965 10.1897 18.0139 10.4137C18.1418 10.627 18.1205 10.8777 17.9499 11.1657C17.3098 12.2751 16.2165 12.8297 14.6699 12.8297ZM20.349 4.02979C19.8476 4.02979 19.6716 4.26978 19.821 4.74979L22.045 11.9498C22.1943 12.4298 22.5196 12.6698 23.021 12.6698H23.885C24.3863 12.6698 24.7116 12.4298 24.861 11.9498L27.085 4.74979C27.2343 4.26978 27.0583 4.02979 26.557 4.02979H25.789C25.373 4.02979 25.1063 4.22711 24.989 4.6218L23.453 9.70978L21.917 4.6218C21.7996 4.22711 21.533 4.02979 21.117 4.02979H20.349ZM32.4667 12.8297C31.2507 12.8297 30.3014 12.4457 29.6187 11.6777C28.9361 10.9097 28.5947 9.7951 28.5947 8.33374C28.5947 6.88309 28.9307 5.77908 29.6027 5.02176C30.2854 4.25375 31.2294 3.86975 32.4347 3.86975C33.6294 3.86975 34.5627 4.24841 35.2347 5.00574C35.9174 5.75241 36.2641 6.8511 36.2747 8.30176C36.2747 8.8031 36.0187 9.05374 35.5067 9.05374H30.6747C30.6747 9.67242 30.8401 10.147 31.1707 10.4778C31.5121 10.7977 31.9814 10.9577 32.5787 10.9577C33.1547 10.9577 33.6081 10.7924 33.9387 10.4617C34.3121 10.0884 34.6961 9.93375 35.0907 9.99774C35.4534 10.0511 35.6934 10.1897 35.8107 10.4137C35.9387 10.627 35.9174 10.8777 35.7467 11.1657C35.1067 12.2751 34.0134 12.8297 32.4667 12.8297ZM33.5867 6.17374C33.2667 5.88574 32.8827 5.74176 32.4347 5.74176C31.9867 5.74176 31.6027 5.88574 31.2827 6.17374C30.9627 6.45108 30.7761 6.8031 30.7227 7.22974H34.1467C34.0934 6.8031 33.9067 6.45108 33.5867 6.17374ZM49.032 11.6777C48.3493 12.4457 47.4107 12.8297 46.216 12.8297C45.0213 12.8297 44.0827 12.4457 43.4 11.6777C42.7173 10.9097 42.376 9.80042 42.376 8.34976C42.376 6.89908 42.7173 5.78976 43.4 5.02176C44.0827 4.25375 45.0213 3.86975 46.216 3.86975C47.4107 3.86975 48.3493 4.25375 49.032 5.02176C49.7147 5.78976 50.056 6.89908 50.056 8.34976C50.056 9.80042 49.7147 10.9097 49.032 11.6777ZM52.8829 4.02975C52.3815 4.02975 52.1309 4.28043 52.1309 4.78174V15.1177C52.1309 15.619 52.3815 15.8698 52.8829 15.8698H53.4429C53.9443 15.8698 54.1949 15.619 54.1949 15.1177V11.6458C54.3229 11.9337 54.6003 12.2057 55.0269 12.4617C55.4536 12.707 55.9709 12.8297 56.5789 12.8297C57.5815 12.8297 58.3495 12.4457 58.8829 11.6777C59.4269 10.899 59.6989 9.78976 59.6989 8.34976C59.6989 6.90976 59.4269 5.80576 58.8829 5.03775C58.3495 4.25909 57.5815 3.86975 56.5789 3.86975C55.9709 3.86975 55.4536 3.99774 55.0269 4.25375C54.6003 4.49908 54.3229 4.76575 54.1949 5.05374V4.78174C54.1949 4.28043 53.9443 4.02975 53.4429 4.02975H52.8829ZM54.1949 8.34976C54.1949 6.61108 54.7709 5.74176 55.9229 5.74176C57.0643 5.74176 57.6349 6.61108 57.6349 8.34976C57.6349 10.0884 57.0643 10.9577 55.9229 10.9577C54.7709 10.9577 54.1949 10.0884 54.1949 8.34976ZM61.5996 4.78174C61.5996 4.28043 61.8503 4.02975 62.3516 4.02975H62.9116C63.4129 4.02975 63.6636 4.28043 63.6636 4.78174V4.98975C64.1543 4.2431 64.8476 3.86975 65.7436 3.86975C66.7676 3.86975 67.5249 4.30176 68.0156 5.16574C68.4636 4.30176 69.2209 3.86975 70.2876 3.86975C71.1196 3.86975 71.7969 4.15244 72.3196 4.71774C72.8423 5.27243 73.1036 6.04044 73.1036 7.02176V11.9178C73.1036 12.419 72.8529 12.6697 72.3516 12.6697H71.7916C71.2903 12.6697 71.0396 12.419 71.0396 11.9178V7.06976C71.0396 6.18442 70.6023 5.74176 69.7276 5.74176C68.8316 5.74176 68.3836 6.18442 68.3836 7.06976V11.9178C68.3836 12.419 68.1329 12.6697 67.6316 12.6697H67.0716C66.5703 12.6697 66.3196 12.419 66.3196 11.9178V7.06976C66.3196 6.18442 65.8823 5.74176 65.0076 5.74176C64.1116 5.74176 63.6636 6.18442 63.6636 7.06976V11.9178C63.6636 12.419 63.4129 12.6697 62.9116 12.6697H62.3516C61.8503 12.6697 61.5996 12.419 61.5996 11.9178V4.78174ZM76.2281 11.6777C76.9108 12.4457 77.8601 12.8297 79.0761 12.8297C80.6228 12.8297 81.7161 12.2751 82.3561 11.1657C82.5268 10.8777 82.5481 10.627 82.4201 10.4137C82.3028 10.1897 82.0628 10.0511 81.7001 9.99774C81.3054 9.93375 80.9214 10.0884 80.5481 10.4617C80.2174 10.7924 79.7641 10.9577 79.1881 10.9577C78.5908 10.9577 78.1214 10.7977 77.7801 10.4778C77.4494 10.147 77.2841 9.67242 77.2841 9.05374H82.1161C82.6281 9.05374 82.8841 8.8031 82.8841 8.30176C82.8734 6.8511 82.5268 5.75241 81.8441 5.00574C81.1721 4.24841 80.2388 3.86975 79.0441 3.86975C77.8388 3.86975 76.8948 4.25375 76.2121 5.02176C75.5401 5.77908 75.2041 6.88309 75.2041 8.33374C75.2041 9.7951 75.5454 10.9097 76.2281 11.6777ZM79.0441 5.74176C79.4921 5.74176 79.8761 5.88574 80.1961 6.17374C80.5161 6.45108 80.7028 6.8031 80.7561 7.22974H77.3321C77.3854 6.8031 77.5721 6.45108 77.8921 6.17374C78.2121 5.88574 78.5961 5.74176 79.0441 5.74176ZM84.7705 4.78174C84.7705 4.28043 85.0212 4.02975 85.5225 4.02975H86.0825C86.5838 4.02975 86.8345 4.28043 86.8345 4.78174V4.98975C87.3252 4.2431 88.0558 3.86975 89.0265 3.86975C89.8585 3.86975 90.5518 4.15244 91.1065 4.71774C91.6612 5.28308 91.9385 6.05109 91.9385 7.02176V11.9178C91.9385 12.419 91.6878 12.6697 91.1865 12.6697H90.6265C90.1252 12.6697 89.8745 12.419 89.8745 11.9178V7.06976C89.8745 6.62177 89.7305 6.29108 89.4425 6.07776C89.1545 5.85376 88.7918 5.74176 88.3545 5.74176C87.9172 5.74176 87.5545 5.85376 87.2665 6.07776C86.9785 6.29108 86.8345 6.62177 86.8345 7.06976V11.9178C86.8345 12.419 86.5838 12.6697 86.0825 12.6697H85.5225C85.0212 12.6697 84.7705 12.419 84.7705 11.9178V4.78174ZM93.3936 4.78174V5.14972C93.3936 5.65106 93.6442 5.90173 94.1456 5.90173H94.3856V10.1577C94.3856 10.8937 94.5936 11.4964 95.0095 11.9657C95.4362 12.435 96.1348 12.6697 97.1055 12.6697H97.3295C97.8309 12.6697 98.0815 12.419 98.0815 11.9177V11.5497C98.0815 11.0484 97.8309 10.7977 97.3295 10.7977H96.9935C96.7695 10.7977 96.6201 10.7284 96.5455 10.5897C96.4816 10.451 96.4496 10.2377 96.4496 9.94974V5.90173H97.3295C97.8309 5.90173 98.0815 5.65106 98.0815 5.14972V4.78174C98.0815 4.2804 97.8309 4.02972 97.3295 4.02972H96.4496V2.22174C96.4496 1.86972 96.3215 1.69373 96.0656 1.69373C95.9482 1.69373 95.8416 1.71506 95.7455 1.75772L95.0895 2.01373C94.6202 2.19507 94.3856 2.54172 94.3856 3.05371V4.02972H94.1456C93.6442 4.02972 93.3936 4.2804 93.3936 4.78174Z"
            fill="currentColor" />
    </symbol>
    <symbol id="download" viewBox="0 0 141 11">
        <path fill-rule="evenodd" clip-rule="evenodd"
            d="M45.8467 0.703766C45.8467 0.28598 46.0556 0.0770874 46.4733 0.0770874H46.94C47.3578 0.0770874 47.5667 0.28598 47.5667 0.703766V3.54376C47.9222 2.92154 48.4911 2.61041 49.2733 2.61041C49.9933 2.61041 50.5756 2.84598 51.02 3.31708C51.4645 3.7793 51.6867 4.41931 51.6867 5.23709V9.31708C51.6867 9.73486 51.4778 9.94376 51.06 9.94376H50.5933C50.1756 9.94376 49.9667 9.73486 49.9667 9.31708V5.2771C49.9667 4.90375 49.86 4.6282 49.6467 4.45041C49.4333 4.26376 49.1445 4.17041 48.78 4.17041C48.4156 4.17041 48.1222 4.26376 47.9 4.45041C47.6778 4.6282 47.5667 4.90375 47.5667 5.2771V9.31708C47.5667 9.73486 47.3578 9.94376 46.94 9.94376H46.4733C46.0556 9.94376 45.8467 9.73486 45.8467 9.31708V0.703766ZM15.5938 5.27704C15.5938 6.83261 15.9315 8.02371 16.6071 8.85037C17.2827 9.66815 18.2737 10.0771 19.5804 10.0771C20.2382 10.0771 20.847 9.96594 21.407 9.74371C21.976 9.52148 22.4514 9.17038 22.8337 8.69037C23.2159 8.21039 23.407 7.64148 23.407 6.9837V5.29037C23.407 4.87259 23.1982 4.66373 22.7803 4.66373H20.9004C20.5537 4.66373 20.3271 4.82816 20.2203 5.15704L20.0204 5.74371C19.8781 6.14371 20.0204 6.34372 20.4471 6.34372H21.527V7.34372C21.3227 7.71704 21.087 7.98816 20.8203 8.15704C20.5627 8.31705 20.1714 8.39706 19.6471 8.39706C18.8648 8.39706 18.3048 8.13037 17.967 7.59705C17.6382 7.05484 17.4738 6.28149 17.4738 5.27704C17.4738 4.2637 17.6382 3.49039 17.967 2.95706C18.296 2.42371 18.856 2.15704 19.6471 2.15704C20.2781 2.15704 20.7581 2.33038 21.087 2.67706C21.3538 2.95261 21.6292 3.09039 21.9138 3.09039H22.7538C22.9582 3.09039 23.0959 3.03705 23.1671 2.93039C23.247 2.8237 23.247 2.68149 23.1671 2.50372C22.8648 1.82816 22.4293 1.3215 21.8604 0.983704C21.3004 0.645935 20.5403 0.477051 19.5804 0.477051C18.2827 0.477051 17.2914 0.890381 16.6071 1.71704C15.9315 2.53482 15.5938 3.7215 15.5938 5.27704ZM25.7576 9.1171C26.3265 9.75708 27.1176 10.0771 28.131 10.0771C29.4199 10.0771 30.331 9.61487 30.8643 8.6904C31.0065 8.45041 31.0243 8.24152 30.9176 8.06375C30.8199 7.87708 30.6199 7.76154 30.3176 7.71707C29.9888 7.66376 29.6688 7.79263 29.3576 8.10373C29.0821 8.3793 28.7043 8.51709 28.2243 8.51709C27.7265 8.51709 27.3354 8.38373 27.051 8.1171C26.7754 7.84152 26.6376 7.44598 26.6376 6.93042H30.6643C31.091 6.93042 31.3043 6.72153 31.3043 6.30374C31.2954 5.09485 31.0065 4.17929 30.4376 3.55707C29.8776 2.92596 29.0999 2.61041 28.1043 2.61041C27.0999 2.61041 26.3132 2.93042 25.7443 3.5704C25.1843 4.20151 24.9043 5.12152 24.9043 6.33041C24.9043 7.54819 25.1888 8.47708 25.7576 9.1171ZM28.1043 4.17041C28.4776 4.17041 28.7976 4.29041 29.0643 4.53043C29.331 4.76154 29.4865 5.05487 29.531 5.4104H26.6776C26.7221 5.05487 26.8776 4.76154 27.1443 4.53043C27.411 4.29041 27.731 4.17041 28.1043 4.17041ZM32.2236 3.67712V3.37045C32.2236 2.95267 32.4325 2.74377 32.8502 2.74377H33.0502V1.93045C33.0502 1.50378 33.2458 1.2149 33.6369 1.06378L34.1836 0.850464C34.2636 0.814911 34.3525 0.797119 34.4502 0.797119C34.6636 0.797119 34.7702 0.943787 34.7702 1.23712V2.74377H35.5036C35.9214 2.74377 36.1302 2.95267 36.1302 3.37045V3.67712C36.1302 4.09491 35.9214 4.30377 35.5036 4.30377H34.7702V7.67712C34.7702 7.91711 34.7969 8.09491 34.8502 8.21045C34.9125 8.32602 35.0369 8.38379 35.2236 8.38379H35.5036C35.9214 8.38379 36.1302 8.59268 36.1302 9.01044V9.31711C36.1302 9.73489 35.9214 9.94379 35.5036 9.94379H35.3169C34.508 9.94379 33.9258 9.74823 33.5703 9.35712C33.2236 8.966 33.0502 8.46378 33.0502 7.85046V4.30377H32.8502C32.4325 4.30377 32.2236 4.09491 32.2236 3.67712ZM40.4268 3.37045V3.67712C40.4268 4.09491 40.6357 4.30377 41.0535 4.30377H41.2534V7.85046C41.2534 8.46378 41.4268 8.966 41.7735 9.35712C42.129 9.74823 42.7112 9.94379 43.5201 9.94379H43.7068C44.1245 9.94379 44.3335 9.73489 44.3335 9.31711V9.01044C44.3335 8.59268 44.1245 8.38379 43.7068 8.38379H43.4268C43.2401 8.38379 43.1157 8.32602 43.0535 8.21045C43.0001 8.09491 42.9734 7.91711 42.9734 7.67712V4.30377H43.7068C44.1245 4.30377 44.3335 4.09491 44.3335 3.67712V3.37045C44.3335 2.95267 44.1245 2.74377 43.7068 2.74377H42.9734V1.23712C42.9734 0.943787 42.8668 0.797119 42.6534 0.797119C42.5899 0.797119 42.5302 0.804626 42.4742 0.819641C42.4439 0.827728 42.4148 0.838013 42.3867 0.850464L41.8401 1.06378C41.4489 1.2149 41.2534 1.50378 41.2534 1.93045V2.74377H41.0535C40.6357 2.74377 40.4268 2.95267 40.4268 3.37045ZM54.2469 9.1171C54.8158 9.75708 55.6068 10.0771 56.6202 10.0771C57.9091 10.0771 58.8203 9.61487 59.3535 8.6904C59.4958 8.45041 59.5135 8.24152 59.4069 8.06375C59.3091 7.87708 59.109 7.76154 58.8069 7.71707C58.478 7.66376 58.158 7.79263 57.8469 8.10373C57.5714 8.3793 57.1935 8.51709 56.7136 8.51709C56.2158 8.51709 55.8246 8.38373 55.5403 8.1171C55.2646 7.84152 55.1269 7.44598 55.1269 6.93042H59.1536C59.5803 6.93042 59.7935 6.72153 59.7935 6.30374C59.7846 5.09485 59.4958 4.17929 58.9268 3.55707C58.3669 2.92596 57.5891 2.61041 56.5936 2.61041C55.5891 2.61041 54.8025 2.93042 54.2336 3.5704C53.6736 4.20151 53.3936 5.12152 53.3936 6.33041C53.3936 7.54819 53.6779 8.47708 54.2469 9.1171ZM64.67 9.26373C64.5278 9.13931 64.4656 8.99707 64.4834 8.8371C64.5011 8.66818 64.5989 8.52597 64.7767 8.4104L64.9901 8.26373C65.1145 8.17487 65.2567 8.1304 65.4167 8.1304C65.5589 8.1304 65.7234 8.17041 65.91 8.25043C66.3101 8.42819 66.7234 8.51709 67.1501 8.51709C67.8167 8.51709 68.1501 8.33487 68.1501 7.9704C68.1501 7.78375 68.0567 7.63708 67.8701 7.53043C67.6924 7.42374 67.3989 7.30374 66.9901 7.17041C66.6346 7.05487 66.3546 6.95264 66.1501 6.86374C65.9545 6.77487 65.7145 6.64151 65.4301 6.46375C65.1456 6.27707 64.9323 6.04596 64.79 5.77042C64.6567 5.48596 64.59 5.15707 64.59 4.78375C64.59 4.05487 64.8434 3.51263 65.35 3.15707C65.8656 2.79263 66.4923 2.61041 67.23 2.61041C68.1723 2.61041 68.9456 2.87262 69.55 3.39709C69.7011 3.52151 69.7679 3.66376 69.75 3.82373C69.7323 3.98373 69.6346 4.12152 69.4568 4.23709L69.2434 4.38373C69.1011 4.48154 68.959 4.53043 68.8167 4.53043C68.6924 4.53043 68.5323 4.48596 68.3367 4.39709C68.0256 4.24597 67.6834 4.17041 67.31 4.17041C66.6434 4.17041 66.31 4.35263 66.31 4.71707C66.31 4.90375 66.3989 5.05042 66.5768 5.15707C66.7634 5.26373 67.0612 5.38373 67.47 5.51709C67.8345 5.63263 68.1145 5.73486 68.31 5.82373C68.5056 5.91263 68.7456 6.05042 69.03 6.23709C69.3145 6.41486 69.5234 6.64151 69.6567 6.91708C69.799 7.19263 69.8701 7.51263 69.8701 7.87708C69.8701 8.61487 69.5989 9.16599 69.0567 9.53043C68.5234 9.89487 67.8835 10.0771 67.1367 10.0771C66.0967 10.0771 65.2745 9.80597 64.67 9.26373ZM74.4324 10.0771C75.428 10.0771 76.2102 9.75708 76.7791 9.1171C77.348 8.47708 77.6324 7.55264 77.6324 6.34375C77.6324 5.13486 77.348 4.21042 76.7791 3.5704C76.2102 2.93042 75.428 2.61041 74.4324 2.61041C73.4369 2.61041 72.6547 2.93042 72.0858 3.5704C71.5169 4.21042 71.2324 5.13486 71.2324 6.34375C71.2324 7.55264 71.5169 8.47708 72.0858 9.1171C72.6547 9.75708 73.4369 10.0771 74.4324 10.0771ZM81.7089 10.0771C81.0155 10.0771 80.4378 9.84155 79.9755 9.37045C79.5133 8.89932 79.2822 8.25934 79.2822 7.45044V3.37045C79.2822 2.95267 79.4911 2.74377 79.9089 2.74377H80.3755C80.7933 2.74377 81.0022 2.95267 81.0022 3.37045V7.41043C81.0022 7.78378 81.1222 8.06378 81.3622 8.25046C81.6022 8.42822 81.9044 8.51712 82.2689 8.51712C82.6333 8.51712 82.9355 8.42822 83.1755 8.25046C83.4155 8.06378 83.5355 7.78378 83.5355 7.41043V3.37045C83.5355 2.95267 83.7444 2.74377 84.1622 2.74377H84.6289C85.0466 2.74377 85.2555 2.95267 85.2555 3.37045V9.31711C85.2555 9.73489 85.0466 9.94379 84.6289 9.94379H84.1622C83.7444 9.94379 83.5355 9.73489 83.5355 9.31711V9.14377C83.1266 9.76599 82.5178 10.0771 81.7089 10.0771ZM87.7233 2.74374C87.3056 2.74374 87.0967 2.95264 87.0967 3.37042V9.31708C87.0967 9.73486 87.3056 9.94376 87.7233 9.94376H88.19C88.6078 9.94376 88.8167 9.73486 88.8167 9.31708V6.15707C88.8167 5.52597 88.9633 5.0593 89.2567 4.75708C89.55 4.45486 89.9767 4.26819 90.5367 4.19708C90.9545 4.14374 91.1633 3.92596 91.1633 3.54373V3.23709C91.1633 3.03262 91.1056 2.88153 90.99 2.78375C90.8833 2.67709 90.7322 2.63263 90.5367 2.65042C90.1545 2.69485 89.8211 2.78375 89.5367 2.91708C89.2611 3.04153 89.0745 3.16153 88.9767 3.2771C88.8789 3.38376 88.8256 3.47263 88.8167 3.54373V3.37042C88.8167 2.95264 88.6078 2.74374 88.19 2.74374H87.7233ZM93.0353 9.1304C92.4753 8.49042 92.1953 7.56152 92.1953 6.34375C92.1953 5.12598 92.4753 4.20151 93.0353 3.5704C93.6041 2.93042 94.3997 2.61041 95.4219 2.61041C96.613 2.61041 97.4753 3.0282 98.0086 3.86374C98.1153 4.03262 98.1419 4.1882 98.0886 4.33041C98.0353 4.46375 97.9064 4.56598 97.7019 4.63708L97.1819 4.8371C96.8975 4.95264 96.6175 4.85931 96.3419 4.55707C96.1108 4.29932 95.8041 4.17041 95.4219 4.17041C94.9508 4.17041 94.5819 4.35709 94.3153 4.73041C94.0486 5.10373 93.9153 5.64151 93.9153 6.34375C93.9153 7.04596 94.0486 7.58374 94.3153 7.95709C94.5819 8.33041 94.9508 8.51709 95.4219 8.51709C95.8041 8.51709 96.1108 8.38818 96.3419 8.1304C96.6175 7.82819 96.8975 7.73486 97.1819 7.8504L97.7019 8.05042C97.9064 8.12152 98.0353 8.22818 98.0886 8.37042C98.1419 8.50375 98.1153 8.65488 98.0086 8.82373C97.4753 9.6593 96.613 10.0771 95.4219 10.0771C94.3997 10.0771 93.6041 9.76154 93.0353 9.1304ZM100.224 9.1171C100.793 9.75708 101.584 10.0771 102.597 10.0771C103.886 10.0771 104.797 9.61487 105.331 8.6904C105.473 8.45041 105.491 8.24152 105.384 8.06375C105.286 7.87708 105.086 7.76154 104.784 7.71707C104.455 7.66376 104.135 7.79263 103.824 8.10373C103.548 8.3793 103.171 8.51709 102.691 8.51709C102.193 8.51709 101.802 8.38373 101.517 8.1171C101.242 7.84152 101.104 7.44598 101.104 6.93042H105.131C105.557 6.93042 105.771 6.72153 105.771 6.30374C105.762 5.09485 105.473 4.17929 104.904 3.55707C104.344 2.92596 103.566 2.61041 102.571 2.61041C101.566 2.61041 100.779 2.93042 100.211 3.5704C99.6501 4.20151 99.3701 5.12152 99.3701 6.33041C99.3701 7.54819 99.6546 8.47708 100.224 9.1171ZM102.571 4.17041C102.944 4.17041 103.264 4.29041 103.531 4.53043C103.797 4.76154 103.953 5.05487 103.997 5.4104H101.144C101.188 5.05487 101.344 4.76154 101.611 4.53043C101.877 4.29041 102.197 4.17041 102.571 4.17041ZM111.473 9.1304C110.913 8.49042 110.633 7.56152 110.633 6.34375C110.633 5.12598 110.913 4.20151 111.473 3.5704C112.042 2.93042 112.838 2.61041 113.86 2.61041C115.051 2.61041 115.913 3.0282 116.447 3.86374C116.553 4.03262 116.58 4.1882 116.527 4.33041C116.473 4.46375 116.344 4.56598 116.14 4.63708L115.62 4.8371C115.335 4.95264 115.055 4.85931 114.78 4.55707C114.549 4.29932 114.242 4.17041 113.86 4.17041C113.389 4.17041 113.02 4.35709 112.753 4.73041C112.487 5.10373 112.353 5.64151 112.353 6.34375C112.353 7.04596 112.487 7.58374 112.753 7.95709C113.02 8.33041 113.389 8.51709 113.86 8.51709C114.242 8.51709 114.549 8.38818 114.78 8.1304C115.055 7.82819 115.335 7.73486 115.62 7.8504L116.14 8.05042C116.344 8.12152 116.473 8.22818 116.527 8.37042C116.58 8.50375 116.553 8.65488 116.447 8.82373C115.913 9.6593 115.051 10.0771 113.86 10.0771C112.838 10.0771 112.042 9.76154 111.473 9.1304ZM121.008 10.0771C122.004 10.0771 122.786 9.75708 123.355 9.1171C123.924 8.47708 124.208 7.55264 124.208 6.34375C124.208 5.13486 123.924 4.21042 123.355 3.5704C122.786 2.93042 122.004 2.61041 121.008 2.61041C120.012 2.61041 119.23 2.93042 118.661 3.5704C118.092 4.21042 117.808 5.13486 117.808 6.34375C117.808 7.55264 118.092 8.47708 118.661 9.1171C119.23 9.75708 120.012 10.0771 121.008 10.0771ZM119.528 6.34375C119.528 5.64151 119.657 5.10373 119.915 4.73041C120.181 4.35709 120.546 4.17041 121.008 4.17041C121.461 4.17041 121.821 4.36151 122.088 4.74374C122.355 5.1171 122.488 5.65042 122.488 6.34375C122.488 7.03708 122.355 7.57486 122.088 7.95709C121.821 8.33041 121.461 8.51709 121.008 8.51709C120.546 8.51709 120.181 8.33041 119.915 7.95709C119.657 7.58374 119.528 7.04596 119.528 6.34375ZM126.284 9.1171C125.84 8.4682 125.617 7.54376 125.617 6.34375C125.617 5.14374 125.84 4.22375 126.284 3.58374C126.737 2.93488 127.382 2.61041 128.217 2.61041C128.724 2.61041 129.155 2.7171 129.511 2.93042C129.866 3.13486 130.097 3.35709 130.204 3.59708V0.703766C130.204 0.28598 130.413 0.0770874 130.831 0.0770874H131.297C131.715 0.0770874 131.924 0.28598 131.924 0.703766V9.31708C131.924 9.73486 131.715 9.94376 131.297 9.94376H130.831C130.413 9.94376 130.204 9.73486 130.204 9.31708V9.09042C130.097 9.33041 129.866 9.5571 129.511 9.77042C129.155 9.97488 128.724 10.0771 128.217 10.0771C127.382 10.0771 126.737 9.75708 126.284 9.1171ZM134.534 9.1171C135.103 9.75708 135.894 10.0771 136.907 10.0771C138.196 10.0771 139.107 9.61487 139.64 8.6904C139.783 8.45041 139.8 8.24152 139.694 8.06375C139.596 7.87708 139.396 7.76154 139.094 7.71707C138.765 7.66376 138.445 7.79263 138.134 8.10373C137.858 8.3793 137.48 8.51709 137 8.51709C136.503 8.51709 136.112 8.38373 135.827 8.1171C135.552 7.84152 135.414 7.44598 135.414 6.93042H139.44C139.867 6.93042 140.08 6.72153 140.08 6.30374C140.072 5.09485 139.783 4.17929 139.214 3.55707C138.654 2.92596 137.876 2.61041 136.88 2.61041C135.876 2.61041 135.089 2.93042 134.52 3.5704C133.96 4.20151 133.68 5.12152 133.68 6.33041C133.68 7.54819 133.965 8.47708 134.534 9.1171ZM136.88 4.17041C137.254 4.17041 137.574 4.29041 137.84 4.53043C138.107 4.76154 138.263 5.05487 138.307 5.4104H135.454C135.498 5.05487 135.654 4.76154 135.92 4.53043C136.187 4.29041 136.507 4.17041 136.88 4.17041Z"
            fill="currentColor" />
        <path fill-rule="evenodd" clip-rule="evenodd"
            d="M5.48768 0.632751C6.14363 0.632751 6.67539 1.16451 6.67539 1.82047V2.40274C6.67636 2.41002 6.67784 2.42195 6.68003 2.43702C6.68046 2.43995 6.68094 2.44325 6.68148 2.44691C6.68938 2.50046 6.70848 2.62996 6.70931 2.77613C6.71019 2.78187 6.71359 2.80659 6.72484 2.8697C6.72573 2.8747 6.72672 2.8802 6.7278 2.88615C6.74354 2.97327 6.77721 3.15967 6.77721 3.36659V4.27918C6.77721 4.52608 6.73106 4.72542 6.70515 4.83345C6.69868 4.86041 6.69425 4.87847 6.69084 4.89236C6.68582 4.91282 6.68301 4.92425 6.67919 4.94175C6.67736 4.95015 6.67647 4.95495 6.67611 4.95698C6.66796 5.03608 6.66928 5.09293 6.67168 5.19538C6.67329 5.26451 6.67539 5.35441 6.67539 5.48592C6.67539 5.54637 6.673 5.67839 6.66919 5.85285C6.68022 5.84173 6.69151 5.83041 6.70305 5.81887C6.883 5.63892 7.07923 5.52172 7.1665 5.4696C7.169 5.46811 7.17141 5.46667 7.17373 5.46528C7.25186 5.41856 7.27529 5.40378 7.27818 5.4024C7.33248 5.35764 7.3824 5.32406 7.42065 5.30033C7.46186 5.27477 7.49914 5.25472 7.52881 5.23976C7.58631 5.21075 7.63763 5.18961 7.67048 5.17664C7.69072 5.16866 7.71005 5.16141 7.72675 5.15529C8.06708 4.93893 8.50917 4.90135 8.89614 5.09484C9.48285 5.38819 9.72066 6.10162 9.4273 6.68832C9.31532 6.91229 9.16205 7.04862 9.07814 7.11466C8.98712 7.18629 8.9025 7.23329 8.84988 7.26029C8.76228 7.30524 8.67748 7.33757 8.63172 7.3543C8.60256 7.3744 8.57539 7.39221 8.55102 7.40775C8.49984 7.44041 8.44415 7.47351 8.41027 7.49364C8.40353 7.49765 8.39765 7.50114 8.39284 7.50402C8.37568 7.51428 8.36303 7.5221 8.35413 7.52772C8.32682 7.55598 8.29457 7.59031 8.25799 7.62925C8.04872 7.85198 7.69779 8.2255 7.32118 8.47658C7.23692 8.53275 7.18425 8.57769 7.10056 8.6491C7.03421 8.70573 6.94835 8.77899 6.81177 8.88769C6.5806 9.07167 6.20667 9.34646 5.71163 9.47022C5.47903 9.52837 5.17938 9.555 4.85881 9.45243C4.53615 9.3492 4.32765 9.15786 4.21084 9.02886C4.15527 8.96749 4.11184 8.91042 4.08769 8.87821C4.0809 8.86916 4.07561 8.86207 4.0714 8.85642C4.06272 8.85179 4.0523 8.84653 4.03972 8.84053C4.01393 8.82823 3.98213 8.81423 3.93615 8.79493L3.89021 8.77586C3.86864 8.77188 3.84507 8.76705 3.82042 8.76125C3.72957 8.73985 3.6088 8.70209 3.4784 8.63096C3.34674 8.55915 3.24531 8.474 3.1692 8.39528C3.13857 8.37998 3.10374 8.36179 3.06756 8.3412C3.00065 8.30312 2.91353 8.24829 2.822 8.17212L2.80963 8.1637C2.7973 8.15535 2.77832 8.14248 2.75795 8.1282C2.72023 8.10177 2.65293 8.05348 2.58147 7.98978C2.56327 7.97355 2.54132 7.95332 2.51702 7.92904C2.49779 7.91756 2.47667 7.90445 2.45436 7.88972C2.41078 7.86095 2.35936 7.82389 2.30503 7.77733C2.26719 7.74489 2.23855 7.72306 2.19297 7.68832C2.15815 7.66178 2.11346 7.62771 2.04723 7.57563C1.94507 7.4953 1.79649 7.37453 1.65367 7.21969C1.12798 7.09731 0.736328 6.62583 0.736328 6.06288C0.736328 5.40693 1.26809 4.87517 1.92405 4.87517C2.32583 4.87517 2.65251 5.02891 2.84924 5.14674C3.06093 5.27353 3.25182 5.43664 3.40051 5.61C3.40051 5.61 3.4075 5.61774 3.42568 5.63407C3.44649 5.65276 3.47467 5.67621 3.51559 5.70839C3.5443 5.73097 3.56875 5.74971 3.5981 5.7722C3.61619 5.78608 3.63616 5.80138 3.66014 5.81989C3.69287 5.84516 3.73074 5.87466 3.77078 5.90708C3.81283 5.92944 3.90302 5.97869 4.00018 6.05364C4.05815 6.09835 4.12411 6.15625 4.18969 6.22967C4.2076 6.24209 4.23175 6.25913 4.25824 6.27907C4.26248 6.28226 4.26696 6.28566 4.27166 6.28927L4.28269 6.29435C4.29263 5.8891 4.29996 5.56953 4.29996 5.48592C4.29996 5.46527 4.2993 5.43414 4.29847 5.39518C4.29507 5.23554 4.28886 4.94449 4.31403 4.70542C4.32523 4.599 4.34268 4.50727 4.35834 4.43549C4.36891 4.387 4.383 4.32947 4.39075 4.29777C4.3927 4.28983 4.39425 4.28351 4.39524 4.27936C4.39824 4.26687 4.40034 4.25754 4.40178 4.2509V3.37916C4.40066 3.37206 4.39697 3.34658 4.38627 3.28658C4.38545 3.28195 4.38455 3.27696 4.38359 3.27163C4.3682 3.1861 4.33679 3.0116 4.33409 2.81304C4.33315 2.80596 4.33163 2.79476 4.32926 2.77841C4.32883 2.77543 4.32832 2.77199 4.32775 2.76813C4.31985 2.7148 4.29996 2.58042 4.29996 2.43138V1.82047C4.29996 1.16451 4.83172 0.632751 5.48768 0.632751Z"
            fill="#EA0303" />
    </symbol>
</svg>